<svg width="181" height="108" viewBox="0 0 181 108" fill="none" xmlns="http://www.w3.org/2000/svg">
<path d="M30.9246 29.708C27.7464 33.2341 22.2145 33.233 19.0377 29.7056L2.88036 11.7655C1.31907 10.0319 1.54298 7.34081 3.36929 5.8891C5.04353 4.55827 7.46424 4.7599 8.89523 6.34937L19.0378 17.6152C22.2144 21.1436 27.7471 21.1452 30.9257 17.6187L40.8637 6.59286C44.041 3.06767 49.5711 3.06767 52.7484 6.59286L62.6899 17.6225C65.8673 21.1477 71.3973 21.1477 74.5747 17.6225L84.5161 6.59286C87.6935 3.06768 93.2235 3.06767 96.4009 6.59286L106.342 17.6225C109.52 21.1477 115.05 21.1477 118.227 17.6225L128.169 6.59192C131.346 3.06707 136.876 3.06668 140.053 6.59107L150.034 17.6607C153.212 21.1861 158.743 21.1845 161.92 17.6574L172.106 6.34745C173.536 4.75899 175.956 4.55766 177.629 5.88785C179.456 7.33986 179.679 10.032 178.116 11.7646L161.916 29.7223C158.74 33.2428 153.216 33.2442 150.038 29.7253L140.054 18.6691C136.875 15.1492 131.35 15.1518 128.174 18.6747L118.227 29.7106C115.05 33.2358 109.52 33.2358 106.342 29.7106L96.4009 18.681C93.2235 15.1558 87.6935 15.1558 84.5161 18.681L74.5747 29.7106C71.3973 33.2358 65.8673 33.2358 62.6899 29.7106L52.7485 18.681C49.5711 15.1558 44.041 15.1558 40.8637 18.681L30.9246 29.708Z" fill="#E6F2FA"/>
<path d="M30.9246 65.5029C27.7464 69.029 22.2145 69.0279 19.0377 65.5006L2.88037 47.5604C1.31908 45.8269 1.54298 43.1357 3.36929 41.684C5.04353 40.3532 7.46424 40.5548 8.89523 42.1443L19.0378 53.4102C22.2144 56.9385 27.7471 56.9401 30.9257 53.4136L40.8637 42.3878C44.041 38.8626 49.5711 38.8626 52.7484 42.3878L62.6899 53.4174C65.8673 56.9426 71.3973 56.9426 74.5747 53.4174L84.5161 42.3878C87.6935 38.8626 93.2235 38.8626 96.4009 42.3878L106.342 53.4174C109.52 56.9426 115.05 56.9426 118.227 53.4174L128.174 42.3815C131.35 38.8586 136.875 38.856 140.054 42.3759L150.039 53.4328C153.216 56.9515 158.74 56.9503 161.916 53.4303L172.104 42.1386C173.536 40.5518 175.955 40.3517 177.628 41.6816C179.455 43.1342 179.678 45.8275 178.114 47.5609L161.916 65.5172C158.74 69.0378 153.216 69.0392 150.038 65.5202L140.054 54.464C136.875 50.9441 131.35 50.9467 128.174 54.4696L118.227 65.5055C115.05 69.0307 109.52 69.0307 106.342 65.5055L96.4009 54.4759C93.2235 50.9507 87.6935 50.9507 84.5161 54.4759L74.5747 65.5055C71.3973 69.0307 65.8673 69.0307 62.6899 65.5055L52.7485 54.4759C49.5711 50.9507 44.041 50.9507 40.8637 54.4759L30.9246 65.5029Z" fill="#E6F2FA"/>
<path d="M30.9246 101.298C27.7464 104.824 22.2145 104.823 19.0377 101.295L2.87753 83.3522C1.31593 81.6183 1.53468 78.9278 3.35588 77.4689C5.03549 76.1235 7.47331 76.3231 8.91171 77.9238L19.0384 89.1933C22.2136 92.7269 27.7507 92.7311 30.9313 89.2023L40.8637 78.1827C44.041 74.6575 49.5711 74.6575 52.7484 78.1827L62.6899 89.2123C65.8673 92.7375 71.3973 92.7375 74.5747 89.2123L84.5161 78.1827C87.6935 74.6575 93.2235 74.6575 96.4009 78.1827L106.342 89.2123C109.52 92.7375 115.05 92.7375 118.227 89.2123L128.174 78.1764C131.35 74.6535 136.875 74.6509 140.054 78.1708L150.033 89.2215C153.213 92.7424 158.74 92.7387 161.915 89.2134L172.088 77.918C173.527 76.3201 175.963 76.122 177.641 77.4665C179.463 78.9263 179.681 81.619 178.117 83.3527L161.916 101.312C158.74 104.833 153.216 104.834 150.038 101.315L140.054 90.2589C136.875 86.739 131.35 86.7416 128.174 90.2646L118.227 101.3C115.05 104.826 109.52 104.826 106.342 101.3L96.4009 90.2708C93.2235 86.7456 87.6935 86.7456 84.5161 90.2708L74.5747 101.3C71.3973 104.826 65.8673 104.826 62.6899 101.3L52.7485 90.2708C49.5711 86.7456 44.041 86.7456 40.8637 90.2708L30.9246 101.298Z" fill="#E6F2FA"/>
</svg>
